<?xml version="1.0" standalone="no"?><!DOCTYPE svg PUBLIC "-//W3C//DTD SVG 1.1//EN" "http://www.w3.org/Graphics/SVG/1.1/DTD/svg11.dtd"><svg t="1605454784814" class="icon" viewBox="0 0 1064 1024" version="1.1" xmlns="http://www.w3.org/2000/svg" p-id="4737" xmlns:xlink="http://www.w3.org/1999/xlink" width="207.8125" height="200"><defs><style type="text/css"></style></defs><path d="M527.93344 906.19904c-319.20128 0-508.928-119.84896-508.928-378.2656 0-66.9696 12.94336-132.17792 37.80608-192.83968 3.35872-8.11008 0.24576-31.86688-11.0592-89.04704l-0.8192-4.096C30.26944 167.85408 27.60704 140.98432 41.45152 121.36448c21.38112-30.22848 47.7184-29.9008 117.1456-14.62272l3.93216 0.86016c43.37664 9.50272 63.2832 10.48576 74.83392 2.4576A506.59328 506.59328 0 0 1 527.93344 19.00544c109.44512 0 213.77024 34.69312 300.2368 97.97632 9.78944 7.168 30.63808 5.44768 78.2336-5.65248 74.5472-17.36704 100.63872-18.6368 121.07776 9.95328 15.64672 21.87264 11.79648 50.9952-7.20896 128.28672l-0.98304 4.096c-14.7456 60.0064-18.92352 84.50048-15.1552 94.53568 34.52928 91.3408 47.63648 166.13376 26.46016 264.35584-11.4688 53.4528-36.12672 97.6896-71.39328 137.0112-19.08736 21.21728-66.88768 63.0784-70.61504 67.66592-7.70048 7.70048-1.6384 57.42592 24.1664 139.42784l18.8416 59.8016-48.86528-39.23968c-93.42976-75.07968-154.4192-111.90272-164.2496-107.9296a507.4944 507.4944 0 0 1-190.54592 36.864z m332.1856-113.99168c4.83328-6.3488 54.14912-49.5616 70.77888-68.07552 31.1296-34.65216 52.51072-73.1136 62.54592-119.6032 19.2512-89.41568 7.29088-157.77792-24.86272-242.8928-8.02816-21.2992-4.21888-43.99104 13.76256-117.06368l1.024-4.05504c14.62272-59.67872 18.59584-89.53856 13.18912-97.11616-6.30784-8.8064-26.624-7.7824-79.62624 4.54656-62.95552 14.66368-88.02304 16.71168-111.2064-0.24576a468.5824 468.5824 0 0 0-277.79072-90.64448c-97.52576 0-190.54592 29.696-268.82048 84.21376-24.08448 16.7936-49.88928 15.48288-104.73472 3.4816l-3.97312-0.86016C98.7136 132.54656 80.2816 132.3008 72.4992 143.31904c-4.3008 6.06208-1.4336 35.0208 9.70752 91.25888l0.8192 4.096c14.04928 70.94272 16.75264 91.79136 8.97024 110.83776a469.4016 469.4016 0 0 0-34.97984 178.42176c0 232.81664 170.02496 340.21376 470.87616 340.21376 61.19424 0 120.75008-11.6736 176.29184-34.11968 25.92768-10.4448 74.05568 14.70464 155.8528 77.04576-16.26112-63.85664-16.95744-102.1952 0-118.86592z" fill="#ff5777" p-id="4738"></path><path d="M589.04576 666.8288c32.1536 0 53.78048-19.70176 68.68992-50.7904 8.68352-18.14528 0.53248-36.33152-21.34016-53.08416a9.50272 9.50272 0 0 0-11.55072 15.11424c15.5648 11.8784 19.78368 21.2992 15.72864 29.73696-12.04224 25.23136-28.30336 40.01792-51.52768 40.01792-18.51392 0-40.18176-13.7216-64.512-42.10688l-7.82336-9.09312-7.08608 9.70752c-20.48 28.0576-40.22272 41.49248-59.02336 41.49248-26.37824 0-47.59552-15.72864-59.10528-39.97696-4.7104-9.95328 0.98304-18.8416 21.9136-28.75392a9.50272 9.50272 0 0 0-8.11008-17.2032c-29.24544 13.84448-41.20576 32.5632-30.96576 54.10816 14.45888 30.43328 41.94304 50.83136 76.26752 50.83136 23.3472 0 45.75232-13.63968 67.25632-40.05888 24.73984 26.50112 48.3328 40.05888 71.18848 40.05888z" fill="#ff5777" p-id="4739"></path><path d="M117.30944 190.8736l48.61952 18.14528a20.48 20.48 0 0 1 6.84032 34.2016l-7.168 6.67648a20.48 20.48 0 0 1-33.5872-9.216l-14.7456-49.7664zM945.88928 190.8736l-48.66048 18.14528a20.48 20.48 0 0 0-6.79936 34.2016l7.168 6.67648a20.48 20.48 0 0 0 33.5872-9.216l14.70464-49.7664z" fill="#ff5777" p-id="4740"></path></svg>